<svg width="25" height="25" viewBox="0 0 25 25" fill="currentColor" xmlns="http://www.w3.org/2000/svg">
<path d="M8.56755 4.74988C11.1355 4.74988 12.6176 6.90222 12.6176 6.90222C12.6176 6.90222 14.1026 4.74988 16.6676 4.74988C19.3226 4.74988 21.6176 6.81988 21.6176 9.69988C21.6176 13.9304 15.178 18.3696 12.9827 20.3102C12.7758 20.4931 12.4593 20.4931 12.2524 20.3102C10.0581 18.3708 3.61755 13.9302 3.61755 9.69988C3.61755 6.81988 5.91255 4.74988 8.56755 4.74988Z" fill="white" fill-opacity="0.6"/>
<path d="M3.61755 9.61474C3.61755 6.95285 5.76772 4.74988 8.48241 4.74988C10.6044 4.74988 11.9768 6.10864 12.6176 6.93661C13.2584 6.10864 14.6308 4.74988 16.7527 4.74988C19.4682 4.74988 21.6176 6.9529 21.6176 9.61474C21.6176 10.7797 21.1504 11.9361 20.471 13.0149C19.7892 14.0975 18.8696 15.1402 17.9076 16.0876C16.5743 17.4007 15.0933 18.5886 14.031 19.4406C13.5794 19.8028 13.2035 20.1043 12.9469 20.3289C12.7583 20.4938 12.4768 20.4938 12.2883 20.3289C12.0316 20.1043 11.6557 19.8028 11.2041 19.4406C10.1419 18.5886 8.66081 17.4007 7.32752 16.0876C6.36557 15.1402 5.44591 14.0975 4.76414 13.0149C4.08479 11.9361 3.61755 10.7797 3.61755 9.61474ZM8.48241 5.74988C6.32684 5.74988 4.61755 7.49826 4.61755 9.61474C4.61755 10.5173 4.98308 11.4859 5.61032 12.482C6.23514 13.4741 7.09588 14.4559 8.0292 15.3751C9.32788 16.6541 10.7018 17.7549 11.7515 18.596C12.0748 18.8551 12.3674 19.0895 12.6176 19.2969C12.8677 19.0895 13.1603 18.8551 13.4836 18.596C14.5334 17.7549 15.9073 16.6541 17.2059 15.3751C18.1393 14.4559 19 13.4741 19.6248 12.482C20.2521 11.4859 20.6176 10.5173 20.6176 9.61474C20.6176 7.49821 18.909 5.74988 16.7527 5.74988C14.6582 5.74988 13.4357 7.45199 13.1209 7.96016C12.8903 8.33238 12.3448 8.33237 12.1143 7.96015C11.7995 7.45198 10.577 5.74988 8.48241 5.74988Z" fill="#1F2026"/>
</svg>
